<?xml version="1.0" standalone="no"?>
<!DOCTYPE svg PUBLIC "-//W3C//DTD SVG 20010904//EN"
 "http://www.w3.org/TR/2001/REC-SVG-20010904/DTD/svg10.dtd">
<svg version="1.0" xmlns="http://www.w3.org/2000/svg"
 width="1280.000000pt" height="1280.000000pt" viewBox="0 0 1280.000000 1280.000000"
 preserveAspectRatio="xMidYMid meet">
<metadata>
Created by potrace 1.15, written by Peter Selinger 2001-2017
</metadata>
<g transform="translate(0.000000,1280.000000) scale(0.100000,-0.100000)"
fill="#000000" stroke="none">
<path d="M6055 11784 c-758 -58 -1423 -237 -2055 -553 -557 -279 -1009 -608
-1446 -1053 -262 -267 -420 -459 -616 -749 -233 -344 -397 -652 -548 -1029
-205 -512 -328 -1057 -371 -1640 -15 -202 -6 -716 15 -915 56 -516 174 -987
366 -1470 82 -206 296 -633 394 -785 289 -447 463 -667 786 -991 286 -287 548
-504 850 -700 144 -94 170 -111 195 -125 11 -6 70 -40 130 -74 162 -93 467
-239 655 -313 462 -182 917 -294 1437 -353 188 -21 714 -30 918 -15 705 52
1363 226 1980 525 171 83 371 191 465 251 277 177 501 340 695 506 112 96 426
402 526 514 218 244 455 572 643 890 77 129 269 528 334 690 189 474 304 952
364 1510 17 162 17 828 0 990 -101 942 -377 1728 -869 2472 -230 349 -434 595
-744 898 -868 848 -1966 1363 -3199 1501 -138 15 -775 28 -905 18z"/>
</g>
</svg>
